<?xml version="1.0" encoding="UTF-8" standalone="no"?>
<svg
   clip-rule="evenodd"
   fill-rule="evenodd"
   stroke-linejoin="round"
   stroke-miterlimit="2"
   viewBox="0 0 24 24"
   version="1.1"
   id="svg4"
   sodipodi:docname="iconmonstr-plus-square-multiple-lined.svg"
   inkscape:version="1.1.2 (0a00cf5339, 2022-02-04)"
   xmlns:inkscape="http://www.inkscape.org/namespaces/inkscape"
   xmlns:sodipodi="http://sodipodi.sourceforge.net/DTD/sodipodi-0.dtd"
   xmlns="http://www.w3.org/2000/svg"
   xmlns:svg="http://www.w3.org/2000/svg">
  <defs
     id="defs8" />
  <sodipodi:namedview
     id="namedview6"
     pagecolor="#ffffff"
     bordercolor="#666666"
     borderopacity="1.0"
     inkscape:pageshadow="2"
     inkscape:pageopacity="0.0"
     inkscape:pagecheckerboard="0"
     showgrid="false"
     inkscape:zoom="34.958333"
     inkscape:cx="12"
     inkscape:cy="12.014303"
     inkscape:window-width="1920"
     inkscape:window-height="1011"
     inkscape:window-x="0"
     inkscape:window-y="32"
     inkscape:window-maximized="1"
     inkscape:current-layer="svg4" />
  <path
     d="m20 20h-15.25c-.414 0-.75.336-.75.75s.336.75.75.75h15.75c.53 0 1-.47 1-1v-15.75c0-.414-.336-.75-.75-.75s-.75.336-.75.75zm-1-17c0-.478-.379-1-1-1h-15c-.62 0-1 .519-1 1v15c0 .621.52 1 1 1h15c.478 0 1-.379 1-1zm-15.5.5h14v14h-14zm6.25 6.25h-3c-.414 0-.75.336-.75.75s.336.75.75.75h3v3c0 .414.336.75.75.75s.75-.336.75-.75v-3h3c.414 0 .75-.336.75-.75s-.336-.75-.75-.75h-3v-3c0-.414-.336-.75-.75-.75s-.75.336-.75.75z"
     fill-rule="nonzero"
     id="path2" />
  <path
     style="fill:#ffffff;stroke:#ffffff;stroke-width:0.0286055"
     d="M 2.7613704,18.948381 C 2.469016,18.869561 2.2589393,18.696664 2.1080698,18.410702 l -0.077081,-0.146101 -0.00741,-7.693813 C 2.0154201,2.1014439 2.0022657,2.7356327 2.192039,2.4491272 2.3014755,2.2839083 2.492494,2.1371792 2.6889154,2.0674564 2.8245386,2.0193148 3.229547,2.0166865 10.512515,2.0166865 h 7.680572 l 0.161538,0.065316 c 0.228358,0.092334 0.404424,0.2579931 0.516791,0.4862443 l 0.09402,0.1909804 v 7.7526868 7.752687 l -0.08011,0.163126 c -0.09975,0.203138 -0.312488,0.39857 -0.529144,0.486111 l -0.163098,0.0659 -7.637664,0.0054 c -6.6509161,0.0047 -7.6578684,-4.5e-5 -7.7940526,-0.03676 z M 17.520858,10.498212 V 3.4898689 H 10.498212 3.4755662 v 7.0083431 7.008343 h 7.0226458 7.022646 z"
     id="path84" />
  <path
     style="fill:#ffffff;stroke:#ffffff;stroke-width:0.0286055"
     d="M 10.260289,14.936578 C 10.073147,14.869844 9.926263,14.734252 9.8370625,14.545888 L 9.7693313,14.402861 9.7690452,12.822408 9.7687723,11.241955 H 8.2292682 c -1.7258949,0 -1.7423938,-0.0016 -1.956558,-0.194702 C 5.944588,10.751466 5.9410509,10.242626 6.2651389,9.9580728 6.4888884,9.7616181 6.4113442,9.7696445 8.1740167,9.7604893 l 1.5947556,-0.00828 2.861e-4,-1.5793215 2.861e-4,-1.5793213 0.067342,-0.1446181 c 0.1119362,-0.2404166 0.4134815,-0.441797 0.6615255,-0.441797 0.248044,0 0.54959,0.2013804 0.661539,0.4417943 l 0.06734,0.1446181 2.86e-4,1.5793213 2.86e-4,1.5793215 1.594756,0.00828 1.594755,0.00828 0.135554,0.066758 c 0.259239,0.1276774 0.42224,0.3834914 0.42224,0.6626814 0,0.205639 -0.05977,0.346746 -0.21394,0.505054 -0.23637,0.242718 -0.202715,0.238689 -1.993874,0.238689 H 11.22765 v 1.562831 c 0,1.115108 -0.0096,1.594998 -0.03364,1.675114 -0.04273,0.14263 -0.225567,0.351486 -0.37397,0.427196 -0.165038,0.0842 -0.375266,0.09527 -0.559752,0.02948 z"
     id="path123" />
  <path
     style="fill:#ffffff;stroke:#ffffff;stroke-width:0.0286055"
     d="M 4.4624553,21.415141 C 3.8935981,21.147733 3.8720514,20.373538 4.4257867,20.0976 l 0.1480209,-0.07376 h 7.7178634 7.717864 l 1.72e-4,-7.673421 c 1.14e-4,-4.9332542 0.01019,-7.7095256 0.02825,-7.7745272 0.07786,-0.2802946 0.337917,-0.5137425 0.619301,-0.5559386 0.286773,-0.043004 0.632535,0.1568589 0.765529,0.4425041 l 0.05993,0.1287247 0.0084,7.938021 c 0.0062,5.84935 -1.43e-4,7.982997 -0.02416,8.108951 -0.01792,0.09401 -0.0583,0.221346 -0.08973,0.282967 -0.08817,0.172817 -0.290612,0.371246 -0.472991,0.463603 l -0.16527,0.08369 -8.066746,0.007 -8.0667463,0.007 z"
     id="path162" />
</svg>
