<?xml version="1.0" encoding="UTF-8" standalone="no"?>
<svg
   width="24"
   height="24"
   viewBox="0 0 24 24"
   version="1.1"
   id="svg4"
   sodipodi:docname="iconmonstr-trash-can-13.svg"
   inkscape:version="1.1.2 (0a00cf5339, 2022-02-04)"
   xmlns:inkscape="http://www.inkscape.org/namespaces/inkscape"
   xmlns:sodipodi="http://sodipodi.sourceforge.net/DTD/sodipodi-0.dtd"
   xmlns="http://www.w3.org/2000/svg"
   xmlns:svg="http://www.w3.org/2000/svg">
  <defs
     id="defs8" />
  <sodipodi:namedview
     id="namedview6"
     pagecolor="#ffffff"
     bordercolor="#666666"
     borderopacity="1.0"
     inkscape:pageshadow="2"
     inkscape:pageopacity="0.0"
     inkscape:pagecheckerboard="0"
     showgrid="false"
     inkscape:zoom="34.958333"
     inkscape:cx="12"
     inkscape:cy="7.4374255"
     inkscape:window-width="1920"
     inkscape:window-height="1011"
     inkscape:window-x="0"
     inkscape:window-y="32"
     inkscape:window-maximized="1"
     inkscape:current-layer="svg4" />
  <path
     d="M3 8v16h18v-16h-18zm5 12c0 .552-.448 1-1 1s-1-.448-1-1v-8c0-.552.448-1 1-1s1 .448 1 1v8zm5 0c0 .552-.448 1-1 1s-1-.448-1-1v-8c0-.552.448-1 1-1s1 .448 1 1v8zm5 0c0 .552-.448 1-1 1s-1-.448-1-1v-8c0-.552.448-1 1-1s1 .448 1 1v8zm4-15.375l-.409 1.958-19.591-4.099.409-1.958 5.528 1.099c.881.185 1.82-.742 2.004-1.625l5.204 1.086c-.184.882.307 2.107 1.189 2.291l5.666 1.248z"
     id="path2" />
  <path
     style="fill:#ffffff;stroke-width:0.0286055"
     d="M 3.0178784,16.004768 V 8.0095352 H 12 20.982122 V 16.004768 24 H 12 3.0178784 Z m 4.3764281,4.925894 c 0.2151675,-0.07938 0.4534678,-0.319098 0.5462142,-0.549466 l 0.069014,-0.171422 V 15.990465 11.771156 L 7.9202008,11.585221 C 7.7780759,11.289409 7.5721015,11.112892 7.2674592,11.02583 6.8022714,10.892887 6.299379,11.126033 6.0742115,11.579032 l -0.06706,0.134913 v 4.27652 4.27652 l 0.076382,0.162951 c 0.231428,0.493722 0.7710161,0.699849 1.310773,0.500726 z m 4.9489595,0.01986 c 0.272778,-0.08759 0.535322,-0.35676 0.618925,-0.634553 0.03216,-0.106875 0.039,-0.865635 0.039,-4.328975 0,-4.177074 -3.15e-4,-4.200228 -0.05923,-4.357695 -0.08292,-0.221624 -0.292875,-0.443074 -0.518844,-0.547252 C 12.269254,11.01111 12.207875,10.999074 12,10.999074 c -0.207875,0 -0.269254,0.01204 -0.423117,0.08297 -0.226423,0.104387 -0.435906,0.32558 -0.519212,0.548235 -0.05954,0.159137 -0.05959,0.163418 -0.05208,4.412301 l 0.0075,4.253009 0.07029,0.143027 c 0.22815,0.464241 0.749094,0.675908 1.259865,0.511903 z m 4.977354,0.01171 c 0.271756,-0.08024 0.519401,-0.322211 0.628677,-0.614279 0.05821,-0.155587 0.05854,-0.184056 0.05107,-4.395304 l -0.0075,-4.238704 -0.06706,-0.134913 c -0.225168,-0.452999 -0.72806,-0.686145 -1.193248,-0.553202 -0.304643,0.08706 -0.510617,0.263579 -0.652742,0.559391 l -0.08933,0.185935 v 4.219309 4.219309 l 0.0659,0.163097 c 0.19903,0.492588 0.739184,0.744392 1.264255,0.589361 z"
     id="path285" />
  <path
     style="fill:#ffffff;stroke:#ffffff;stroke-width:0.0286055"
     d="M 11.742551,4.5110549 C 6.4011919,3.3926901 2.0281745,2.4762547 2.0247343,2.4745318 2.0167743,2.4705418 2.4148194,0.56491832 2.4259406,0.5537972 2.4304906,0.5492442 3.6929645,0.79607846 5.231431,1.1023183 6.7698974,1.4085581 8.0956557,1.659118 8.1775606,1.659118 c 0.6120318,0 1.3065208,-0.5255096 1.6315961,-1.23460474 C 9.8620992,0.30902858 9.914311,0.1727056 9.9251834,0.1215733 9.9360555,0.070441 9.9581604,0.02860548 9.9743053,0.02860548 c 0.016145,0 1.1382447,0.23138666 2.4935557,0.51419257 1.355311,0.28280593 2.502818,0.52191205 2.550017,0.53134685 l 0.08582,0.017154 0.0029,0.3768772 c 0.0034,0.4426363 0.06062,0.6956756 0.242095,1.0705951 0.151666,0.3133422 0.437146,0.6203588 0.691662,0.7438412 0.144266,0.069993 0.735644,0.2092308 3.050506,0.7182299 1.579351,0.3472726 2.875415,0.6352729 2.880143,0.6400005 0.0047,0.00473 -0.06112,0.3430441 -0.146322,0.7518142 -0.257284,1.2343182 -0.237036,1.1584313 -0.308153,1.1548931 -0.03433,-0.00171 -4.432614,-0.9181307 -9.773972,-2.0364955 z"
     id="path474" />
</svg>
